<svg width="300" height="300" viewBox="0 0 300 300" fill="none" xmlns="http://www.w3.org/2000/svg">
<path fill-rule="evenodd" clip-rule="evenodd" d="M92.5562 216.963C135.337 210.713 164.794 211.25 207.631 217.181C210.734 217.631 213.568 219.188 215.612 221.565C217.656 223.942 218.77 226.978 218.75 230.113C218.75 233.113 217.719 236.025 215.856 238.3C212.61 242.266 209.284 246.167 205.881 250H222.387C223.425 248.763 224.469 247.5 225.525 246.219C229.232 241.673 231.255 235.985 231.25 230.119C231.25 217.463 222.012 206.556 209.344 204.806C165.494 198.738 134.844 198.156 90.75 204.6C77.95 206.469 68.75 217.544 68.75 230.288C68.75 235.944 70.5938 241.538 74.0875 246.069C75.1188 247.406 76.1375 248.719 77.15 250.006H93.2562C90.0901 246.216 87.002 242.361 83.9937 238.444C82.206 236.099 81.2416 233.23 81.25 230.281C81.25 223.55 86.0875 217.906 92.5562 216.963ZM150 156.25C154.925 156.25 159.801 155.28 164.351 153.395C168.9 151.511 173.034 148.749 176.517 145.267C179.999 141.784 182.761 137.65 184.645 133.101C186.53 128.551 187.5 123.675 187.5 118.75C187.5 113.825 186.53 108.949 184.645 104.399C182.761 99.8497 179.999 95.7157 176.517 92.2335C173.034 88.7513 168.9 85.9891 164.351 84.1045C159.801 82.22 154.925 81.25 150 81.25C140.054 81.25 130.516 85.2009 123.483 92.2335C116.451 99.2661 112.5 108.804 112.5 118.75C112.5 128.696 116.451 138.234 123.483 145.267C130.516 152.299 140.054 156.25 150 156.25ZM150 168.75C163.261 168.75 175.979 163.482 185.355 154.105C194.732 144.729 200 132.011 200 118.75C200 105.489 194.732 92.7715 185.355 83.3947C175.979 74.0178 163.261 68.75 150 68.75C136.739 68.75 124.021 74.0178 114.645 83.3947C105.268 92.7715 100 105.489 100 118.75C100 132.011 105.268 144.729 114.645 154.105C124.021 163.482 136.739 168.75 150 168.75Z" fill="black"/>
<path fill-rule="evenodd" clip-rule="evenodd" d="M150 262.5C212.131 262.5 262.5 212.131 262.5 150C262.5 87.8688 212.131 37.5 150 37.5C87.8687 37.5 37.4999 87.8688 37.4999 150C37.4999 212.131 87.8687 262.5 150 262.5ZM150 275C219.037 275 275 219.037 275 150C275 80.9625 219.037 25 150 25C80.9624 25 24.9999 80.9625 24.9999 150C24.9999 219.037 80.9624 275 150 275Z" fill="black"/>
</svg>
